<svg xmlns="http://www.w3.org/2000/svg" xmlns:xlink="http://www.w3.org/1999/xlink" preserveAspectRatio="xMidYMid" width="2300" height="2300" viewBox="0 0 2300 2300">
  <defs>
    <style>
      .cls-1 {
        fill: #fff;
      }

      .cls-1, .cls-10, .cls-2, .cls-3, .cls-4, .cls-5, .cls-6, .cls-7, .cls-8, .cls-9 {
        fill-rule: evenodd;
      }

      .cls-2 {
        fill: #f05a00;
      }

      .cls-3 {
        fill: #ed1c24;
      }

      .cls-4 {
        fill: #008f0a;
      }

      .cls-10, .cls-5 {
        fill: #000;
      }

      .cls-6, .cls-7, .cls-8, .cls-9 {
        stroke: #000;
      }

      .cls-6 {
        stroke-width: 100px;
        fill: none;
      }

      .cls-7 {
        fill: #af8c00;
        stroke-width: 8px;
      }

      .cls-8, .cls-9 {
        fill: #fc0;
      }

      .cls-8 {
        stroke-linecap: square;
        stroke-width: 17px;
      }

      .cls-10, .cls-8, .cls-9 {
        stroke-linejoin: round;
      }

      .cls-9 {
        stroke-linecap: round;
        stroke-width: 25px;
      }

      .cls-10 {
        stroke: #040404;
        stroke-width: 9px;
      }
    </style>
  </defs>
  <g>
    <path d="M511.677,111.966 L275.433,462.675 C275.433,462.675 411.053,613.327 428.681,809.758 C437.771,911.058 398.079,973.140 352.079,1105.671 C286.818,1293.698 310.905,1379.257 310.905,1379.257 C310.905,1379.257 316.739,1442.193 331.544,1499.370 C344.017,1547.537 366.269,1601.942 366.269,1601.942 C366.269,1601.942 415.393,1719.397 545.689,1814.470 C780.472,1985.784 1161.776,2187.472 1161.776,2187.472 C1161.776,2187.472 1530.506,1978.303 1758.861,1808.132 C1876.725,1720.300 1924.832,1612.954 1924.832,1612.954 C1924.832,1612.954 1964.770,1544.877 1980.190,1481.840 C1993.712,1426.562 1990.870,1375.303 1990.870,1375.303 C1990.870,1375.303 1991.510,1286.266 1978.446,1208.707 C1968.240,1148.115 1942.803,1073.881 1942.803,1073.881 C1942.803,1073.881 1873.187,947.510 1880.223,799.185 C1885.822,681.156 1961.218,543.078 1961.218,543.078 L2015.317,467.712 L1786.005,112.588 C1786.005,112.588 1632.797,218.039 1474.050,224.343 C1319.616,230.476 1159.525,137.466 1159.525,137.466 C1159.525,137.466 996.291,228.870 836.194,223.524 C674.376,218.120 511.677,111.966 511.677,111.966 Z" class="cls-1"/>
    <g>
      <path d="M1788.000,128.000 L1996.000,447.000 C1996.000,447.000 1806.119,544.840 1712.102,421.280 C1613.337,291.482 1788.000,128.000 1788.000,128.000 Z" class="cls-2"/>
      <g>
        <path d="M1638.629,356.354 C1639.293,362.070 1635.595,367.157 1630.369,367.717 L1540.467,377.344 C1535.241,377.903 1530.465,373.723 1529.800,368.008 C1529.136,362.292 1532.834,357.205 1538.060,356.645 L1627.962,347.018 C1633.188,346.459 1637.964,350.638 1638.629,356.354 Z" class="cls-2"/>
        <path d="M1639.867,400.691 C1641.675,404.281 1641.442,407.949 1639.217,408.880 L1563.755,440.446 C1554.868,444.164 1544.882,440.438 1542.474,431.979 C1540.142,423.789 1546.220,415.486 1555.088,413.411 L1632.508,395.295 C1634.850,394.747 1638.086,397.154 1639.867,400.691 Z" class="cls-2"/>
        <path d="M1667.336,447.058 C1667.747,449.947 1667.327,452.810 1666.336,453.549 L1606.211,498.382 C1592.461,508.635 1572.768,510.581 1566.358,498.363 C1559.343,484.990 1573.963,467.408 1592.361,462.300 L1664.660,442.229 C1665.752,441.926 1666.918,444.118 1667.336,447.058 Z" class="cls-2"/>
        <path d="M1689.865,485.607 C1690.189,488.669 1689.618,491.965 1688.530,493.117 L1633.524,551.305 C1623.394,562.021 1608.984,566.869 1603.236,558.853 C1596.822,549.908 1605.760,532.570 1619.813,523.696 L1687.151,481.175 C1688.349,480.418 1689.532,482.461 1689.865,485.607 Z" class="cls-2"/>
        <path d="M1723.201,503.863 C1727.140,506.602 1729.398,510.757 1728.111,513.203 L1686.956,591.411 C1682.406,600.058 1672.584,601.358 1665.713,593.804 C1659.123,586.560 1658.638,574.777 1663.929,567.824 L1713.435,502.771 C1715.033,500.672 1719.343,501.179 1723.201,503.863 Z" class="cls-2"/>
        <path d="M1771.259,519.134 C1775.266,521.182 1778.018,525.249 1777.419,528.360 L1760.163,618.028 C1758.456,626.898 1750.906,632.426 1743.297,629.690 C1735.545,626.904 1731.583,616.965 1734.374,608.192 L1762.205,520.703 C1763.158,517.706 1767.212,517.066 1771.259,519.134 Z" class="cls-2"/>
      </g>
    </g>
    <g>
      <path d="M496.778,1295.689 C496.778,1295.689 388.783,1316.906 436.369,1361.608 C482.758,1405.186 541.177,1357.446 541.177,1357.446 C541.177,1357.446 535.582,1321.673 523.805,1315.789 C512.029,1309.904 538.231,1308.864 560.488,1314.332 C595.346,1322.896 609.005,1293.349 598.203,1339.301 C592.395,1364.005 683.329,1368.740 687.702,1346.334 C693.067,1318.853 652.059,1293.757 623.167,1306.550 C612.802,1311.139 625.841,1277.443 616.482,1269.762 C589.483,1247.602 518.165,1243.553 511.055,1258.068 C490.517,1299.992 496.778,1295.689 496.778,1295.689 Z" class="cls-3"/>
      <path d="M758.304,1407.051 C758.304,1407.051 776.930,1453.951 718.444,1461.567 C659.958,1469.183 609.253,1434.143 684.525,1399.394 C759.797,1364.644 711.445,1389.855 745.760,1354.615 C750.461,1349.786 760.203,1355.764 772.469,1351.821 C783.510,1348.272 796.519,1334.679 811.090,1332.483 C832.888,1329.198 848.509,1342.910 871.323,1344.336 C906.510,1346.534 946.746,1340.387 959.404,1359.888 C974.669,1383.404 989.202,1353.208 1014.671,1386.283 C1042.208,1422.043 1041.905,1411.668 1088.862,1404.510 C1135.820,1397.352 1353.309,1402.478 1357.155,1420.323 C1358.892,1428.380 1345.433,1467.018 1307.433,1491.111 C1261.273,1520.378 1186.902,1533.910 1161.527,1518.079 C1115.263,1489.214 1094.219,1487.933 1067.200,1521.824 C1040.181,1555.716 1016.314,1509.024 1023.420,1475.923 C1030.525,1442.822 1004.834,1430.079 974.605,1435.514 C971.670,1436.042 944.778,1416.441 920.963,1405.884 C903.138,1397.983 889.104,1399.653 876.854,1394.046 C860.920,1386.752 834.472,1378.260 820.570,1388.698 C781.721,1417.865 758.304,1407.051 758.304,1407.051 Z" class="cls-3"/>
      <path d="M827.048,1420.201 C827.048,1420.201 739.711,1441.666 792.222,1469.224 C844.734,1496.781 923.381,1494.717 933.713,1463.605 C944.046,1432.493 935.636,1405.302 889.933,1417.703 C844.230,1430.105 842.216,1432.302 827.048,1420.201 Z" class="cls-3"/>
      <path d="M1580.223,1353.238 C1580.223,1353.238 1555.176,1383.875 1543.953,1365.265 C1532.729,1346.655 1533.819,1347.670 1533.678,1370.966 C1533.538,1394.263 1461.319,1372.781 1452.102,1432.433 C1442.884,1492.084 1519.509,1438.225 1551.050,1412.623 C1582.592,1387.021 1620.190,1328.360 1580.223,1353.238 Z" class="cls-3"/>
      <path d="M1688.621,1306.586 C1688.621,1306.586 1612.854,1328.651 1637.867,1350.949 C1662.881,1373.246 1685.857,1370.217 1701.165,1359.022 C1716.474,1347.827 1711.844,1309.899 1688.621,1306.586 Z" class="cls-3"/>
      <path d="M1599.736,1405.397 C1599.736,1405.397 1527.984,1426.573 1551.689,1448.032 C1575.394,1469.490 1597.154,1466.590 1611.647,1455.832 C1626.141,1445.075 1621.734,1408.596 1599.736,1405.397 Z" class="cls-3"/>
      <path d="M1801.228,1233.301 C1801.228,1233.301 1796.217,1242.302 1780.885,1249.989 C1764.115,1258.398 1715.274,1260.653 1750.474,1277.664 C1786.809,1295.222 1803.291,1286.153 1818.599,1274.958 C1833.908,1263.763 1824.451,1236.614 1801.228,1233.301 Z" class="cls-3"/>
      <path d="M1417.233,1412.644 C1417.233,1412.644 1421.101,1405.536 1432.951,1399.472 C1445.914,1392.839 1483.678,1391.090 1456.448,1377.626 C1428.341,1363.728 1415.602,1370.883 1403.772,1379.718 C1391.942,1388.553 1399.273,1410.011 1417.233,1412.644 Z" class="cls-3"/>
      <path d="M1750.333,1302.490 C1750.333,1302.490 1752.879,1311.726 1736.610,1325.854 C1722.418,1338.179 1694.936,1355.140 1739.908,1364.151 C1762.563,1368.691 1785.824,1341.431 1790.309,1322.904 C1794.794,1304.378 1770.161,1289.855 1750.333,1302.490 Z" class="cls-3"/>
      <path d="M1685.658,1382.529 C1685.658,1382.529 1687.441,1388.994 1676.052,1398.884 C1666.118,1407.511 1646.881,1419.384 1678.361,1425.692 C1694.219,1428.869 1710.502,1409.787 1713.641,1396.819 C1716.781,1383.850 1699.538,1373.685 1685.658,1382.529 Z" class="cls-3"/>
      <path d="M1846.246,1310.914 C1846.246,1310.914 1848.504,1328.196 1826.110,1332.887 C1799.103,1338.544 1775.743,1356.027 1789.148,1386.634 C1795.900,1402.052 1832.947,1381.905 1852.609,1363.063 C1872.271,1344.221 1883.750,1310.351 1846.246,1310.914 Z" class="cls-3"/>
    </g>
    <path d="M1785.855,1777.876 C1785.855,1777.876 1618.783,1900.631 1463.493,1996.489 C1312.457,2089.721 1157.485,2187.009 1157.485,2187.009 C1157.485,2187.009 929.976,2049.518 772.921,1953.079 C646.697,1875.572 532.138,1804.065 532.138,1804.065 C532.138,1804.065 610.664,1821.037 619.808,1802.459 C624.470,1792.986 614.918,1766.489 652.796,1773.918 C693.381,1781.879 695.241,1778.294 715.178,1798.710 C735.116,1819.125 762.059,1852.571 735.883,1804.707 C722.605,1780.427 740.525,1781.197 748.971,1790.571 C774.077,1818.432 770.355,1789.554 797.461,1809.097 C838.766,1838.879 831.018,1767.637 893.368,1818.950 C964.247,1877.282 978.002,1876.688 955.214,1830.140 C949.746,1818.972 959.450,1814.078 968.033,1809.204 C977.535,1803.808 996.013,1793.853 1029.879,1820.395 C1107.598,1881.304 1096.065,1832.170 1117.901,1803.313 C1127.332,1790.849 1157.805,1790.421 1186.559,1814.236 C1222.306,1843.844 1269.378,1838.224 1269.378,1838.224 C1264.130,1850.798 1227.852,1958.505 1291.155,1871.423 C1303.781,1854.054 1308.718,1839.677 1330.687,1835.815 C1353.457,1831.811 1373.022,1835.034 1399.345,1846.738 C1437.332,1863.628 1475.084,1864.193 1475.084,1864.193 C1475.084,1864.193 1507.480,1773.979 1535.903,1827.830 C1554.635,1863.320 1551.110,1780.751 1566.967,1772.040 C1586.608,1761.250 1610.253,1799.316 1629.617,1803.632 C1647.404,1807.597 1682.938,1741.250 1682.237,1753.887 C1680.192,1790.772 1785.855,1777.876 1785.855,1777.876 Z" class="cls-4"/>
    <g>
      <path d="M432.701,845.120 C432.701,845.120 613.003,850.347 694.000,872.000 C774.997,893.653 812.711,907.547 861.072,946.908 C902.803,980.873 901.567,1047.870 900.000,1070.000 C896.617,1117.775 828.889,1009.859 733.000,1123.000 C717.567,1141.210 684.199,1080.003 635.000,1066.000 C554.384,1043.055 366.694,1070.041 366.694,1070.041 C366.694,1070.041 384.597,1034.745 402.000,985.000 C428.853,908.243 432.701,845.120 432.701,845.120 Z" class="cls-5"/>
      <path d="M974.753,1170.008 L883.933,1263.601 C883.933,1263.601 814.559,1167.106 801.200,1161.020 C787.841,1154.933 754.851,1116.543 819.892,1102.050 C884.933,1087.558 948.901,1112.807 974.753,1170.008 Z" class="cls-5"/>
      <path d="M995.095,1153.320 L1040.402,1103.881 C1040.402,1103.881 1019.017,1026.653 942.979,1028.349 C915.874,1028.954 922.668,1032.895 922.637,1045.037 C922.581,1066.957 935.387,1102.757 935.387,1102.757 L995.095,1153.320 Z" class="cls-5"/>
      <path d="M1315.049,1013.574 L1430.131,1003.710 C1430.131,1003.710 1553.480,1006.273 1598.155,1139.959 C1636.825,1255.675 1654.686,1243.581 1654.686,1243.581 C1654.686,1243.581 1697.332,1260.414 1651.096,1286.070 C1635.385,1294.788 1621.467,1287.348 1610.483,1287.680 C1589.143,1288.326 1577.731,1288.983 1577.731,1288.983 C1577.731,1288.983 1548.300,1341.762 1489.263,1308.377 C1430.225,1274.991 1444.064,1347.269 1363.287,1308.086 C1314.785,1284.560 1277.748,1335.303 1318.393,1368.096 C1344.892,1389.476 1364.266,1403.985 1364.429,1417.755 C1364.546,1427.597 1362.637,1439.342 1310.801,1442.504 C1186.444,1450.089 1094.995,1460.337 1094.293,1408.755 C1093.591,1357.173 1054.721,1336.219 1054.721,1336.219 C1054.721,1336.219 893.761,1295.241 905.101,1268.054 C925.043,1220.244 997.189,1297.044 1058.517,1299.015 C1085.524,1299.884 1114.449,1273.108 1116.146,1270.912 C1187.034,1179.197 1315.049,1013.574 1315.049,1013.574 Z" class="cls-5"/>
      <path d="M1613.464,1128.764 C1613.464,1128.764 1610.651,1153.050 1623.464,1176.536 C1636.089,1199.677 1664.754,1232.594 1664.754,1232.594 C1664.754,1232.594 1704.934,1253.495 1711.505,1220.151 C1718.076,1186.807 1737.109,1170.171 1761.433,1154.648 C1785.758,1139.125 1772.554,1137.003 1739.027,1118.484 C1705.501,1099.966 1655.996,1075.465 1613.464,1128.764 Z" class="cls-5"/>
    </g>
    <g>
      <path d="M1337.655,559.966 C1337.655,559.966 1338.794,580.880 1334.402,604.641 C1329.141,633.097 1317.315,653.177 1319.072,670.466 C1320.220,681.766 1325.547,690.815 1352.733,680.781 C1375.466,672.390 1360.199,702.493 1391.565,690.208 C1410.369,682.843 1416.722,663.660 1398.383,667.576 C1380.045,671.492 1384.570,662.283 1404.321,639.729 C1411.644,631.368 1416.269,621.694 1415.430,610.994 C1414.005,592.832 1397.121,574.757 1391.228,593.689 C1373.353,651.116 1376.473,600.822 1377.367,574.608 C1377.744,563.534 1374.098,531.780 1359.103,529.456 C1344.630,527.213 1336.554,530.053 1337.655,559.966 Z" class="cls-5"/>
      <path d="M1455.466,711.570 C1455.466,711.570 1441.751,700.528 1426.927,696.840 C1413.139,693.410 1398.235,696.876 1392.168,703.497 C1387.134,708.990 1378.104,713.385 1387.547,719.560 C1399.344,727.275 1397.371,732.022 1393.970,737.192 C1389.152,744.517 1387.402,746.583 1382.925,735.624 C1379.494,727.224 1376.561,709.700 1344.784,700.143 C1321.695,693.198 1287.360,707.659 1287.360,707.659 C1287.360,707.659 1285.475,714.717 1277.292,718.645 C1267.576,723.309 1251.720,716.636 1245.849,719.894 C1235.829,725.454 1236.194,741.451 1257.155,740.618 C1278.117,739.786 1252.639,795.502 1228.395,810.574 C1211.069,821.346 1176.274,842.728 1155.855,834.628 C1139.087,827.977 1135.492,796.015 1143.104,776.907 C1151.982,754.625 1168.068,744.156 1168.068,744.156 C1168.068,744.156 1180.297,734.509 1177.517,717.314 C1174.323,697.550 1155.731,670.494 1149.871,681.358 C1135.506,707.990 1138.064,687.779 1137.888,671.259 C1137.799,662.853 1132.912,650.272 1132.912,650.272 C1132.912,650.272 1121.358,642.412 1117.397,656.181 C1113.436,669.950 1113.430,631.384 1105.265,614.316 C1103.739,611.124 1094.614,614.241 1088.904,610.767 C1084.450,608.056 1089.286,598.976 1083.310,594.020 C1079.084,590.515 1064.334,592.430 1059.782,588.356 C1055.409,584.443 1055.597,564.474 1051.259,560.694 C1047.079,557.052 1037.954,559.021 1034.092,555.718 C1019.154,542.945 1017.911,527.798 1017.911,527.798 C1017.911,527.798 974.573,493.222 980.815,518.684 C983.462,529.479 985.740,543.536 1003.840,570.704 C1028.437,607.622 1070.233,658.054 1070.233,658.054 C1070.233,658.054 1116.338,708.371 1117.109,783.233 C1117.284,800.246 1114.084,814.174 1116.755,824.939 C1122.272,847.178 1130.272,851.524 1130.272,851.524 C1130.272,851.524 1130.997,889.305 1102.832,820.854 C1096.320,805.029 1079.735,796.356 1069.945,785.106 C1059.301,772.875 1055.402,758.386 1047.539,748.942 C1031.105,729.205 1014.858,718.480 1014.858,718.480 C1014.858,718.480 962.792,683.154 973.760,741.285 C975.212,748.976 988.633,758.965 1001.407,777.241 C1017.495,800.259 1044.981,817.858 1044.981,817.858 L1054.843,801.586 C1054.843,801.586 1065.698,788.362 1065.530,806.455 C1065.452,814.818 1064.006,826.817 1068.109,837.079 C1072.882,849.019 1083.314,858.682 1083.314,858.682 L1083.314,858.682 C1083.314,858.682 1075.392,864.279 1064.514,856.668 C1057.530,851.782 1049.213,838.490 1041.578,829.765 C1031.803,818.595 1022.635,803.155 1012.919,803.251 C989.112,803.486 988.306,821.351 993.739,839.506 C996.291,848.037 1004.468,859.795 1015.602,871.958 C1032.833,890.781 1085.584,916.819 1085.584,916.819 C1085.584,916.819 1092.940,928.253 1094.791,938.438 C1096.230,946.359 1092.269,953.607 1092.269,953.607 C1092.269,953.607 1088.186,954.894 1081.355,948.526 C1054.629,923.614 988.574,851.858 988.574,851.858 C988.574,851.858 946.479,849.118 957.957,874.247 C969.435,899.376 990.844,909.994 990.844,909.994 C990.844,909.994 1013.305,913.955 1012.631,930.303 C1012.469,934.246 1008.372,943.029 1001.623,938.046 C992.578,931.369 979.228,911.747 967.120,897.491 C950.808,878.285 936.583,864.509 936.583,864.509 C936.583,864.509 936.534,856.915 942.229,849.519 C948.341,841.582 960.272,833.905 961.753,837.043 C964.614,843.105 972.234,836.626 972.234,836.626 L911.907,770.208 C911.907,770.208 903.544,763.883 895.510,764.496 C886.451,765.188 877.754,773.268 880.877,782.027 C883.922,790.565 891.198,809.388 881.703,803.168 C872.815,797.346 847.352,766.877 843.369,762.343 C839.709,758.177 825.898,744.029 816.342,742.243 C804.388,740.010 802.909,756.742 812.133,768.877 C828.731,790.715 850.467,809.702 850.467,809.702 C850.467,809.702 857.010,820.470 840.811,831.259 C824.612,842.048 883.973,861.305 883.973,861.305 C883.973,861.305 895.210,880.268 874.317,882.862 C853.424,885.456 872.660,907.630 891.070,908.663 C909.480,909.696 913.266,917.045 902.376,929.388 C891.486,941.730 912.321,948.843 929.404,949.488 C946.486,950.133 939.961,957.957 940.710,970.212 C941.630,985.272 951.321,976.547 967.133,981.015 C982.636,985.395 988.825,991.828 994.352,999.842 C1009.212,1021.390 1004.231,984.011 1021.792,1030.513 C1029.389,1050.629 1035.086,1057.334 1043.992,1061.391 C1052.898,1065.449 1049.538,1102.635 1045.849,1108.958 C1042.159,1115.280 899.654,1262.977 899.654,1262.977 C899.654,1262.977 891.340,1264.773 889.586,1273.964 C887.039,1287.311 897.330,1302.307 911.579,1299.557 C924.975,1296.972 936.060,1286.065 952.265,1266.181 C977.927,1234.694 1007.020,1189.900 1007.020,1189.900 C1007.020,1189.900 1023.949,1186.581 992.744,1227.520 C961.539,1268.460 948.056,1292.815 948.056,1292.815 C948.056,1292.815 942.708,1309.639 949.088,1319.241 C958.036,1332.707 992.034,1335.760 1011.147,1295.603 C1043.889,1226.813 1054.184,1188.027 1054.184,1188.027 C1054.184,1188.027 1085.300,1122.389 1055.010,1209.168 C1024.719,1295.946 1022.041,1305.757 1022.041,1305.757 C1021.246,1305.688 1015.212,1330.348 1022.582,1337.224 C1032.752,1346.713 1047.123,1352.259 1054.928,1341.505 C1064.541,1328.258 1072.983,1285.766 1077.828,1255.902 C1084.447,1215.103 1090.867,1186.570 1090.867,1186.570 C1090.867,1186.570 1109.810,1145.236 1096.933,1207.503 C1084.056,1269.770 1069.422,1337.730 1070.855,1346.166 C1073.817,1363.594 1122.907,1361.470 1123.259,1344.084 C1123.508,1331.792 1128.059,1297.932 1131.839,1263.420 C1135.216,1232.590 1138.650,1200.553 1138.650,1200.553 C1138.650,1200.553 1150.956,1157.276 1144.922,1226.771 C1138.887,1296.265 1143.396,1322.111 1143.396,1322.111 C1143.396,1322.111 1165.042,1355.468 1185.732,1331.017 C1198.559,1315.857 1202.675,1276.480 1207.934,1248.584 C1211.157,1231.486 1249.111,1206.753 1249.111,1206.753 L1335.804,1007.456 C1335.804,1007.456 1354.865,978.802 1366.605,944.641 C1375.746,918.042 1378.016,878.739 1378.016,878.739 C1378.016,878.739 1363.704,807.470 1374.920,799.462 C1396.080,784.354 1405.327,776.803 1409.953,755.724 C1412.648,743.440 1425.612,728.305 1440.363,728.050 C1455.115,727.795 1468.665,721.963 1455.466,711.570 Z" class="cls-5"/>
      <path d="M1264.665,798.547 C1264.665,798.547 1263.067,800.585 1260.607,803.721 C1252.413,814.168 1234.667,836.792 1234.667,836.792 C1234.667,836.792 1227.477,854.281 1240.114,841.869 C1252.751,829.457 1287.040,800.305 1280.387,797.923 C1273.733,795.540 1268.861,793.969 1264.665,798.547 Z" class="cls-1"/>
      <path d="M1312.655,817.815 C1312.655,817.815 1279.596,833.684 1277.210,850.982 C1274.823,868.281 1283.275,871.915 1283.275,871.915 C1283.275,871.915 1288.107,883.633 1293.344,860.928 C1298.580,838.224 1316.365,834.430 1312.655,817.815 Z" class="cls-1"/>
      <path d="M1193.442,864.155 C1193.442,864.155 1163.247,893.265 1179.172,909.221 C1195.096,925.176 1213.190,904.484 1201.597,899.360 C1183.584,891.398 1203.401,862.793 1193.442,864.155 Z" class="cls-1"/>
      <path d="M1118.265,947.281 L1118.265,947.281 C1118.265,947.281 1111.773,971.203 1135.018,973.083 C1158.262,974.962 1169.984,991.676 1141.083,994.015 C1112.183,996.355 1099.800,972.097 1102.750,953.191 C1105.699,934.284 1114.261,925.603 1118.265,947.281 Z" class="cls-1"/>
      <path d="M1172.319,987.481 C1172.319,987.481 1159.148,1041.104 1195.551,1044.786 C1231.954,1048.468 1243.447,1009.390 1225.962,1017.111 C1208.476,1024.833 1178.174,1017.860 1177.973,997.844 C1177.771,977.827 1174.791,981.469 1172.319,987.481 Z" class="cls-1"/>
      <path d="M1247.749,1037.420 C1247.749,1037.420 1242.720,1075.128 1280.223,1062.597 C1317.725,1050.066 1308.706,1022.759 1294.912,1035.547 C1281.119,1048.335 1266.738,1052.632 1263.470,1036.795 C1260.201,1020.959 1245.397,1023.410 1247.749,1037.420 Z" class="cls-1"/>
      <path d="M1086.609,1032.899 C1086.609,1032.899 1064.216,1046.986 1096.280,1069.006 C1128.344,1091.025 1136.315,1066.267 1122.307,1065.789 C1113.421,1065.485 1100.641,1055.458 1100.811,1037.961 C1101.048,1013.445 1091.325,1024.622 1086.609,1032.899 Z" class="cls-1"/>
      <path d="M1145.004,1094.433 C1145.004,1094.433 1145.302,1126.464 1172.238,1119.819 C1199.173,1113.174 1182.266,1096.420 1182.099,1103.547 C1181.933,1110.673 1160.634,1109.440 1160.931,1099.094 C1161.229,1088.748 1147.873,1087.040 1145.004,1094.433 Z" class="cls-1"/>
      <path d="M1224.848,1123.023 C1224.848,1123.023 1203.874,1119.668 1225.261,1133.593 C1246.647,1147.518 1258.236,1149.934 1262.150,1137.422 C1266.064,1124.910 1256.861,1106.276 1256.084,1116.489 C1255.308,1126.702 1239.096,1137.464 1235.122,1117.321 C1231.149,1097.179 1224.848,1123.023 1224.848,1123.023 Z" class="cls-1"/>
      <path d="M1231.990,909.745 C1231.990,909.745 1207.684,942.392 1239.604,949.146 C1260.650,953.599 1262.370,942.796 1253.709,938.194 C1249.563,935.991 1241.529,932.783 1238.148,927.620 C1234.465,921.996 1235.610,914.486 1235.610,914.486 C1235.610,914.486 1235.945,905.729 1231.990,909.745 Z" class="cls-1"/>
      <path d="M1303.701,944.748 C1303.701,944.748 1275.422,941.040 1290.595,964.365 C1305.768,987.689 1293.768,980.782 1306.197,966.410 C1318.627,952.038 1319.355,936.132 1303.701,944.748 Z" class="cls-1"/>
      <path d="M1331.911,837.316 C1331.911,837.316 1313.364,869.244 1322.586,879.275 C1331.809,889.306 1334.123,909.576 1337.383,883.886 C1340.644,858.197 1339.411,842.217 1339.411,842.217 C1339.411,842.217 1342.063,824.350 1331.911,837.316 Z" class="cls-1"/>
      <path d="M1327.282,721.953 C1334.517,721.666 1340.614,727.349 1340.899,734.646 C1341.184,741.943 1335.549,748.092 1328.314,748.379 C1321.078,748.667 1314.982,742.984 1314.697,735.687 C1314.412,728.389 1320.046,722.241 1327.282,721.953 Z" class="cls-1"/>
      <path d="M751.970,437.785 C751.970,437.785 695.269,404.724 720.734,444.319 C731.184,460.567 752.895,494.783 781.045,529.238 C821.492,578.744 869.653,628.966 869.653,628.966 C869.653,628.966 890.979,666.359 879.309,607.409 C867.638,548.459 900.408,578.905 909.926,585.020 C919.443,591.134 937.720,590.516 892.347,538.078 C846.975,485.639 751.970,437.785 751.970,437.785 Z" class="cls-5"/>
      <path d="M901.796,511.236 C901.796,511.236 888.115,467.377 933.239,509.987 C951.433,527.167 964.935,549.028 980.827,568.754 C1004.349,597.954 1026.865,622.723 1026.865,622.723 C1026.865,622.723 1040.007,638.393 1016.797,633.709 C1003.250,630.975 995.404,621.360 996.042,639.827 C997.670,686.974 962.746,633.694 936.334,589.264 C909.922,544.835 901.796,511.236 901.796,511.236 Z" class="cls-5"/>
      <path d="M1002.314,666.045 C1002.314,666.045 998.780,608.457 1060.165,669.041 C1121.550,729.624 1101.387,783.858 1101.387,783.858 C1101.387,783.858 1021.108,718.851 1014.033,697.339 C1006.958,675.828 1002.314,666.045 1002.314,666.045 Z" class="cls-5"/>
      <path d="M788.365,563.380 C788.365,563.380 761.258,533.928 745.822,549.190 C729.370,565.457 752.189,584.661 757.954,591.055 C770.860,605.370 872.748,708.243 872.748,708.243 C872.748,708.243 878.609,703.251 877.370,692.180 C876.130,681.109 879.825,684.793 887.644,686.478 C895.464,688.163 915.628,688.363 864.825,639.744 C812.892,590.044 788.365,563.380 788.365,563.380 Z" class="cls-5"/>
      <path d="M890.821,633.419 C890.821,633.419 870.253,561.545 921.026,600.459 C939.404,614.545 952.500,630.369 965.191,645.938 C975.030,658.010 986.799,671.954 986.799,671.954 C986.799,671.954 1000.686,699.885 977.144,693.511 C953.601,687.137 969.643,718.534 967.901,725.638 C964.941,737.710 945.584,727.541 908.193,675.076 C892.784,653.455 890.821,633.419 890.821,633.419 Z" class="cls-5"/>
      <path d="M1001.820,787.811 L914.465,701.293 C914.465,701.293 870.094,691.275 889.295,728.760 C898.581,746.889 909.911,756.055 923.304,769.455 C944.371,790.532 965.962,810.409 965.962,810.409 C965.962,810.409 989.740,830.582 981.477,804.499 C976.189,787.807 989.035,792.698 996.785,793.305 C1001.146,793.646 1001.820,787.811 1001.820,787.811 Z" class="cls-5"/>
      <path d="M874.812,761.095 C874.812,761.095 878.768,791.843 848.403,756.850 C809.674,712.218 776.976,674.993 776.976,674.993 C776.976,674.993 769.756,667.167 771.117,659.346 C772.843,649.429 782.333,629.545 829.587,678.197 C905.578,756.435 895.750,752.708 879.846,755.602 C875.698,756.356 874.812,761.095 874.812,761.095 Z" class="cls-5"/>
    </g>
    <path d="M507.980,103.406 L264.818,462.424 C264.818,462.424 402.086,606.808 419.928,805.625 C429.128,908.156 388.130,970.703 342.395,1105.132 C271.484,1313.563 277.780,1415.352 300.633,1503.613 C313.257,1552.365 356.757,1607.431 356.757,1607.431 C356.757,1607.431 406.478,1726.312 538.357,1822.540 C775.992,1995.935 1161.927,2200.072 1161.927,2200.072 C1161.927,2200.072 1538.171,1996.363 1766.264,1820.126 C1917.560,1703.227 1970.146,1544.297 1970.146,1544.297 C1970.146,1544.297 2014.067,1361.118 1988.516,1209.419 C1978.186,1148.092 1952.440,1072.956 1952.440,1072.956 C1952.440,1072.956 1881.979,945.050 1889.100,794.923 C1894.766,675.461 1979.176,547.852 1979.176,547.852 L2033.932,471.571 L1793.738,99.988 C1793.738,99.988 1638.669,206.719 1477.993,213.100 C1321.684,219.307 1159.648,125.168 1159.648,125.168 C1159.648,125.168 994.432,217.682 832.391,212.271 C668.607,206.801 507.980,103.406 507.980,103.406 Z" class="cls-6"/>
    <g>
      <path d="M276.181,1607.769 L302.404,1507.273 L208.003,1464.959 C208.003,1464.959 213.951,1499.191 228.981,1533.719 C245.584,1571.859 276.181,1607.769 276.181,1607.769 Z" class="cls-7"/>
      <path d="M218.492,1480.826 L281.426,1607.769 C281.426,1607.769 244.429,1598.152 199.528,1565.276 C155.284,1532.882 100.059,1480.001 100.059,1480.001 L157.579,1340.090 C157.579,1340.090 187.733,1367.804 212.217,1381.918 C229.346,1391.791 239.470,1390.909 239.470,1390.909 L218.492,1480.826 Z" class="cls-8"/>
      <path d="M2094.081,1480.605 C2104.057,1479.937 2084.530,1512.420 2064.546,1544.297 C2041.401,1581.218 2010.788,1621.152 2010.788,1621.152 L1964.901,1528.430 L2094.081,1480.605 Z" class="cls-7"/>
      <path d="M2043.569,1401.488 C2043.569,1401.488 2049.322,1406.715 2074.896,1393.865 C2100.796,1380.851 2136.722,1351.483 2136.722,1351.483 L2204.972,1486.400 C2204.972,1486.400 2151.625,1547.301 2098.899,1580.727 C2049.284,1612.182 2006.857,1623.636 2006.857,1623.636 L2080.280,1480.826 L2043.569,1401.488 Z" class="cls-8"/>
      <path d="M245.428,1304.841 C245.428,1304.841 698.048,1566.448 1152.178,1568.441 C1598.254,1570.397 2045.984,1312.740 2045.984,1312.740 L2078.996,1486.109 C2078.996,1486.109 1610.675,1762.938 1145.282,1759.013 C676.143,1755.056 209.901,1470.346 209.901,1470.346 L245.428,1304.841 Z" class="cls-9"/>
      <path d="M1925.253,1502.901 C1922.856,1508.951 1918.231,1513.580 1911.377,1516.790 C1906.022,1519.297 1900.750,1520.158 1895.559,1519.373 C1890.369,1518.588 1885.053,1516.024 1879.613,1511.680 L1888.270,1498.731 C1894.971,1503.737 1900.676,1505.138 1905.384,1502.933 C1907.840,1501.783 1909.572,1500.095 1910.580,1497.869 C1911.587,1495.643 1911.656,1493.586 1910.786,1491.696 C1909.996,1489.978 1908.573,1488.556 1906.520,1487.429 C1904.466,1486.303 1900.475,1484.977 1894.547,1483.451 C1883.257,1480.553 1875.575,1477.833 1871.502,1475.292 C1867.429,1472.752 1864.555,1469.661 1862.878,1466.019 C1860.458,1460.762 1860.369,1455.323 1862.610,1449.700 C1864.851,1444.078 1868.889,1439.901 1874.721,1437.170 C1878.473,1435.413 1882.449,1434.616 1886.649,1434.779 C1890.849,1434.943 1895.994,1436.417 1902.087,1439.202 L1895.832,1453.595 C1889.707,1450.115 1884.717,1449.277 1880.861,1451.083 C1878.984,1451.962 1877.682,1453.188 1876.954,1454.761 C1876.226,1456.334 1876.155,1457.756 1876.740,1459.027 C1877.326,1460.298 1878.305,1461.301 1879.681,1462.035 C1881.537,1463.004 1886.529,1464.613 1894.657,1466.862 C1902.236,1468.909 1906.883,1470.262 1908.597,1470.921 C1912.858,1472.518 1916.214,1474.381 1918.668,1476.510 C1921.121,1478.641 1923.083,1481.302 1924.554,1484.497 C1927.416,1490.716 1927.649,1496.851 1925.253,1502.901 ZM1808.321,1469.280 L1822.707,1463.036 L1855.467,1539.808 L1841.081,1546.052 L1808.321,1469.280 ZM1795.166,1565.497 L1767.996,1519.501 L1770.459,1575.136 L1757.493,1580.194 L1722.336,1537.314 L1732.733,1589.854 L1718.389,1595.450 L1701.872,1512.279 L1716.207,1506.686 L1754.977,1554.066 L1752.203,1492.643 L1766.529,1487.054 L1809.393,1559.946 L1795.166,1565.497 ZM1644.062,1532.671 L1658.878,1527.551 L1685.740,1606.618 L1670.924,1611.738 L1644.062,1532.671 ZM1610.051,1631.550 L1590.079,1566.709 L1576.037,1571.109 L1571.424,1556.133 L1615.164,1542.429 L1619.777,1557.405 L1605.358,1561.922 L1625.331,1626.763 L1610.051,1631.550 ZM1541.159,1613.509 C1538.445,1615.146 1533.206,1617.016 1525.444,1619.118 L1534.548,1653.305 L1519.314,1657.431 L1497.818,1576.712 L1513.978,1572.335 C1522.719,1569.967 1529.239,1569.074 1533.535,1569.655 C1537.832,1570.237 1541.580,1572.046 1544.780,1575.081 C1547.980,1578.118 1550.258,1582.178 1551.611,1587.262 C1553.112,1592.896 1552.898,1597.974 1550.972,1602.496 C1549.046,1607.019 1545.775,1610.690 1541.159,1613.509 ZM1536.860,1591.230 C1536.029,1588.110 1534.226,1586.158 1531.450,1585.375 C1529.426,1584.782 1526.055,1585.124 1521.340,1586.402 L1517.042,1587.566 L1521.455,1604.138 L1526.298,1602.826 C1530.106,1601.794 1532.680,1600.802 1534.021,1599.849 C1535.362,1598.896 1536.290,1597.671 1536.805,1596.173 C1537.320,1594.676 1537.339,1593.029 1536.860,1591.230 ZM1441.122,1677.817 C1428.946,1680.386 1417.949,1678.275 1408.132,1671.484 C1398.315,1664.694 1392.195,1655.458 1389.772,1643.779 C1388.150,1635.957 1388.534,1628.368 1390.925,1621.013 C1393.316,1613.659 1397.397,1607.371 1403.167,1602.148 C1408.937,1596.926 1415.611,1593.515 1423.190,1591.916 C1434.666,1589.494 1445.404,1591.603 1455.400,1598.239 C1465.397,1604.876 1471.645,1614.220 1474.144,1626.269 C1476.621,1638.208 1474.642,1649.171 1468.208,1659.157 C1461.775,1669.145 1452.746,1675.364 1441.122,1677.817 ZM1458.681,1629.415 C1457.066,1621.629 1453.104,1615.586 1446.796,1611.286 C1440.489,1606.987 1433.618,1605.621 1426.185,1607.189 C1418.677,1608.773 1412.912,1612.738 1408.889,1619.081 C1404.866,1625.425 1403.696,1632.657 1405.381,1640.776 C1407.257,1649.823 1411.961,1656.300 1419.494,1660.205 C1425.352,1663.265 1431.519,1664.112 1437.996,1662.745 C1445.319,1661.200 1451.003,1657.215 1455.048,1650.789 C1459.093,1644.363 1460.304,1637.238 1458.681,1629.415 ZM1283.750,1648.000 L1270.912,1702.165 L1257.066,1703.423 L1234.991,1652.431 L1230.626,1705.826 L1215.308,1707.218 L1222.161,1622.677 L1237.469,1621.286 L1261.789,1677.607 L1275.909,1617.792 L1291.207,1616.402 L1312.490,1698.386 L1297.297,1699.767 L1283.750,1648.000 ZM1178.877,1691.936 C1177.918,1695.188 1176.106,1698.321 1173.441,1701.335 C1170.775,1704.350 1167.710,1706.575 1164.246,1708.012 C1160.781,1709.449 1156.759,1710.154 1152.177,1710.127 C1146.168,1710.090 1140.946,1708.667 1136.512,1705.856 C1132.078,1703.045 1128.916,1699.541 1127.025,1695.344 C1125.135,1691.147 1124.219,1684.068 1124.278,1674.105 L1124.574,1624.277 L1140.405,1624.372 L1140.084,1678.419 C1140.056,1683.074 1140.440,1686.369 1141.236,1688.304 C1142.032,1690.239 1143.356,1691.790 1145.209,1692.956 C1147.061,1694.121 1149.301,1694.711 1151.931,1694.727 C1154.709,1694.744 1157.108,1694.116 1159.125,1692.841 C1161.141,1691.566 1162.541,1689.938 1163.323,1687.956 C1164.104,1685.974 1164.512,1682.181 1164.545,1676.580 L1164.855,1624.520 L1180.685,1624.616 L1180.389,1674.444 C1180.339,1682.853 1179.834,1688.684 1178.877,1691.936 ZM1057.062,1633.994 C1049.169,1633.356 1042.305,1635.541 1036.467,1640.546 C1030.630,1645.552 1027.394,1652.043 1026.761,1660.018 C1026.320,1665.573 1027.125,1670.603 1029.176,1675.105 C1031.228,1679.607 1034.344,1683.263 1038.526,1686.073 C1042.708,1688.883 1047.473,1690.505 1052.822,1690.937 C1057.385,1691.305 1061.624,1690.783 1065.539,1689.368 C1069.453,1687.953 1073.853,1685.161 1078.740,1680.992 L1088.509,1693.071 C1081.930,1698.585 1075.833,1702.284 1070.221,1704.169 C1064.607,1706.052 1058.319,1706.714 1051.356,1706.151 C1038.514,1705.114 1028.329,1700.159 1020.802,1691.285 C1013.274,1682.412 1010.020,1671.557 1011.039,1658.719 C1011.699,1650.413 1014.147,1643.181 1018.386,1637.026 C1022.623,1630.870 1028.370,1626.110 1035.627,1622.743 C1042.884,1619.378 1050.518,1618.018 1058.530,1618.665 C1065.344,1619.216 1071.789,1621.197 1077.867,1624.610 C1083.945,1628.022 1089.055,1632.589 1093.198,1638.311 L1081.361,1647.996 C1074.513,1639.417 1066.413,1634.749 1057.062,1633.994 ZM921.822,1642.166 C918.599,1645.329 914.233,1647.367 908.725,1648.282 L921.445,1688.384 L904.479,1685.271 L892.426,1647.082 L891.006,1646.821 L884.724,1681.647 L869.205,1678.800 L884.037,1596.570 L900.480,1599.587 C909.485,1601.239 915.752,1603.226 919.280,1605.548 C922.807,1607.870 925.394,1611.126 927.041,1615.317 C928.687,1619.508 929.047,1624.174 928.119,1629.317 C927.145,1634.721 925.045,1639.004 921.822,1642.166 ZM912.597,1621.430 C911.915,1619.933 910.853,1618.754 909.411,1617.890 C907.969,1617.026 905.185,1616.216 901.059,1615.459 L896.804,1614.678 L893.759,1631.560 L898.622,1632.452 C903.557,1633.358 907.074,1633.327 909.170,1632.360 C911.266,1631.393 912.588,1629.395 913.134,1626.365 C913.458,1624.571 913.278,1622.926 912.597,1621.430 ZM817.505,1597.906 L814.132,1612.632 L842.950,1619.346 L839.538,1634.238 L810.720,1627.524 L805.813,1648.948 L834.631,1655.662 L831.143,1670.886 L787.066,1660.616 L805.720,1579.182 L849.798,1589.452 L846.323,1604.620 L817.505,1597.906 ZM757.142,1606.796 C753.208,1609.709 748.544,1611.202 743.148,1611.272 C739.986,1611.297 734.530,1610.231 726.782,1608.075 L717.450,1642.199 L702.244,1637.969 L724.279,1557.398 L740.408,1561.885 C749.133,1564.312 755.203,1566.875 758.614,1569.572 C762.026,1572.270 764.348,1575.745 765.581,1579.997 C766.814,1584.251 766.736,1588.915 765.348,1593.990 C763.811,1599.613 761.074,1603.882 757.142,1606.796 ZM748.917,1582.057 C747.470,1580.512 744.392,1579.084 739.686,1577.774 L735.396,1576.581 L730.872,1593.122 L735.705,1594.467 C739.507,1595.524 742.225,1595.985 743.860,1595.848 C745.494,1595.712 746.910,1595.130 748.107,1594.103 C749.303,1593.076 750.147,1591.665 750.638,1589.869 C751.490,1586.755 750.916,1584.151 748.917,1582.057 ZM653.451,1623.339 L661.338,1570.394 L628.282,1615.003 L615.074,1610.628 L614.825,1554.988 L589.851,1602.275 L575.239,1597.435 L614.727,1522.543 L629.330,1527.379 L629.547,1588.809 L665.999,1539.524 L680.592,1544.357 L667.944,1628.139 L653.451,1623.339 ZM541.898,1512.207 L536.608,1526.348 L564.282,1536.877 L558.932,1551.178 L531.259,1540.649 L523.563,1561.222 L551.237,1571.751 L545.768,1586.370 L503.441,1570.266 L532.693,1492.066 L575.020,1508.170 L569.571,1522.737 L541.898,1512.207 ZM471.047,1481.153 C469.136,1480.352 467.360,1480.213 465.719,1480.735 C464.078,1481.258 462.990,1482.166 462.457,1483.460 C461.924,1484.754 461.854,1486.160 462.247,1487.679 C462.794,1489.713 464.994,1494.511 468.845,1502.072 C472.472,1509.089 474.625,1513.457 475.303,1515.176 C477.015,1519.422 477.923,1523.176 478.026,1526.439 C478.128,1529.702 477.510,1532.960 476.169,1536.213 C473.561,1542.544 469.236,1546.865 463.196,1549.173 C457.155,1551.482 450.646,1551.174 443.667,1548.250 C438.216,1545.966 434.022,1542.629 431.087,1538.241 C428.152,1533.853 426.432,1528.168 425.928,1521.189 L441.242,1518.870 C442.114,1527.234 444.947,1532.420 449.740,1534.429 C452.241,1535.476 454.646,1535.623 456.953,1534.867 C459.260,1534.111 460.810,1532.771 461.603,1530.847 C462.323,1529.099 462.401,1527.080 461.836,1524.792 C461.271,1522.505 459.542,1518.642 456.649,1513.205 C451.135,1502.855 447.929,1495.307 447.032,1490.563 C446.134,1485.818 446.450,1481.593 447.977,1477.885 C450.182,1472.533 454.096,1468.789 459.720,1466.654 C465.343,1464.519 471.124,1464.696 477.062,1467.184 C480.882,1468.785 484.152,1471.201 486.872,1474.433 C489.592,1477.664 491.993,1482.485 494.076,1488.896 L479.332,1493.977 C477.734,1487.073 474.973,1482.798 471.047,1481.153 Z" class="cls-10"/>
    </g>
  </g>
</svg>
